<?xml version="1.0" standalone="no"?>
<!DOCTYPE svg PUBLIC "-//W3C//DTD SVG 20010904//EN"
 "http://www.w3.org/TR/2001/REC-SVG-20010904/DTD/svg10.dtd">
<svg version="1.0" xmlns="http://www.w3.org/2000/svg"
 width="956.000000pt" height="1128.000000pt" viewBox="0 0 956.000000 1128.000000"
 preserveAspectRatio="xMidYMid meet">

<g transform="translate(0.000000,1128.000000) scale(0.100000,-0.100000)"
fill="#000000" stroke="none">
<path d="M4588 10588 c-2 -6 -30 -12 -64 -14 -166 -9 -244 -17 -289 -29 -27
-8 -72 -17 -100 -21 -27 -4 -61 -11 -75 -16 -14 -5 -43 -13 -65 -18 -45 -10
-225 -72 -270 -94 -76 -37 -229 -112 -253 -125 -15 -8 -47 -29 -71 -48 -24
-18 -50 -33 -57 -33 -7 0 -14 -3 -16 -7 -1 -5 -39 -35 -83 -68 -106 -78 -322
-296 -413 -415 -40 -52 -79 -104 -88 -115 -27 -36 -140 -212 -164 -259 -14
-25 -21 -49 -16 -53 4 -4 222 -9 483 -11 l475 -3 107 109 c164 168 301 260
546 368 38 17 146 45 210 54 28 5 82 13 120 20 135 23 210 20 500 -20 85 -11
243 -59 325 -97 84 -39 138 -68 178 -95 24 -15 45 -28 48 -28 11 0 128 -94
192 -154 94 -88 203 -215 265 -309 76 -116 85 -132 121 -201 18 -33 37 -70 43
-81 20 -36 83 -174 83 -180 0 -4 7 -21 15 -38 41 -91 139 -397 170 -537 7 -30
17 -73 23 -95 41 -150 105 -527 123 -720 5 -55 14 -131 20 -170 5 -38 12 -104
14 -146 3 -42 9 -137 15 -210 14 -166 18 -240 24 -448 3 -90 9 -168 14 -173
15 -15 210 10 352 44 107 26 129 31 195 51 113 33 248 89 286 120 17 13 18 32
4 267 -11 210 -15 267 -20 290 -3 14 -9 77 -15 140 -24 277 -83 674 -147 985
-14 66 -31 151 -39 188 -8 38 -17 73 -20 79 -6 9 -32 102 -54 193 -6 22 -16
56 -24 75 -7 19 -24 69 -36 110 -12 41 -27 91 -35 110 -7 19 -22 61 -33 93
-48 130 -64 173 -76 202 -26 60 -147 301 -172 340 -13 22 -27 47 -31 55 -4 8
-32 51 -62 95 -30 44 -67 98 -82 121 -69 100 -283 324 -414 432 -123 101 -371
245 -520 302 -33 12 -67 25 -75 29 -18 8 -162 53 -240 74 -30 9 -88 21 -129
27 -41 6 -78 13 -82 16 -9 5 -196 23 -309 29 -35 1 -66 8 -68 14 -5 16 -239
15 -244 -1z"/>
<path d="M588 9159 c-17 -9 -18 -198 -18 -3743 0 -3129 2 -3735 14 -3745 10
-8 707 -10 2642 -9 l2629 3 47 70 c50 73 66 100 103 175 50 102 75 158 75 172
0 8 3 18 7 22 13 13 81 220 90 274 l5 32 -2367 0 c-1612 0 -2372 3 -2386 10
-19 11 -19 37 -19 1399 0 1353 0 1388 19 1405 16 15 38 17 151 15 102 -2 134
1 145 12 10 11 15 85 22 329 5 188 5 320 0 328 -7 9 -51 12 -158 12 -121 0
-150 3 -163 16 -14 14 -16 140 -16 1244 0 1205 0 1229 19 1240 14 7 780 10
2405 10 2297 0 2386 1 2386 18 0 10 -9 37 -20 60 -11 22 -20 46 -20 52 0 5 -4
18 -9 28 -5 9 -21 44 -36 77 -82 186 -207 396 -283 478 l-26 27 -2610 0
c-1755 -1 -2617 -4 -2628 -11z"/>
<path d="M7114 9115 c-4 -8 4 -37 16 -63 13 -26 29 -60 36 -75 8 -16 14 -33
14 -39 0 -5 7 -24 15 -41 38 -82 137 -398 171 -547 19 -84 34 -105 92 -130 26
-11 54 -25 62 -30 8 -5 40 -24 70 -42 79 -46 209 -180 258 -265 23 -39 42 -76
42 -82 0 -6 6 -25 14 -43 55 -135 78 -296 81 -583 5 -459 -79 -681 -335 -886
-43 -34 -164 -109 -177 -109 -3 0 -24 -8 -47 -19 -79 -36 -205 -75 -309 -97
-38 -7 -73 -17 -78 -20 -9 -5 -123 -25 -259 -44 -500 -71 -582 -73 -2365 -79
l-1580 -6 -3 -333 c-2 -261 0 -333 10 -337 7 -2 787 -7 1733 -10 946 -3 1756
-7 1800 -9 111 -6 283 -17 325 -22 19 -2 89 -8 155 -14 176 -15 213 -21 405
-62 191 -41 310 -81 450 -153 204 -105 342 -244 434 -439 20 -41 36 -79 36
-84 0 -5 9 -38 19 -73 46 -156 56 -250 56 -544 0 -353 -22 -514 -96 -715 -55
-148 -109 -233 -217 -338 -105 -102 -257 -192 -412 -240 -36 -12 -92 -29 -125
-40 -47 -14 -62 -24 -67 -43 -4 -13 -17 -58 -28 -99 -12 -41 -27 -91 -34 -110
-7 -19 -23 -66 -35 -105 -26 -79 -83 -229 -110 -290 -10 -22 -30 -66 -45 -98
-14 -31 -26 -62 -26 -67 0 -12 135 -12 210 0 30 5 96 14 145 20 50 6 113 17
140 25 28 7 70 16 95 20 66 10 282 74 337 100 17 8 36 15 41 15 6 0 50 19 99
42 372 177 633 430 806 784 56 113 77 172 143 394 7 25 18 74 24 110 5 36 14
79 19 96 5 17 15 101 22 187 7 86 17 157 21 157 4 0 8 97 8 215 0 118 -4 215
-8 215 -4 0 -14 50 -20 111 -13 113 -56 306 -73 324 -5 5 -9 18 -9 30 0 52
-150 347 -225 440 -17 22 -47 60 -66 85 -45 60 -210 214 -288 270 -35 25 -82
59 -105 75 -22 17 -66 43 -96 58 -30 15 -62 32 -70 37 -32 21 -186 90 -200 90
-23 0 -82 39 -78 52 4 10 62 34 133 55 11 3 25 10 31 14 6 5 37 23 70 40 58
31 191 130 268 199 59 53 216 255 216 278 0 5 9 17 20 27 11 10 20 22 20 26 0
5 15 41 34 81 67 141 120 325 148 513 12 80 15 505 5 640 -13 174 -82 492
-127 586 -5 8 -20 47 -36 85 -15 38 -35 80 -44 94 -8 14 -21 34 -27 45 -49 84
-72 117 -111 165 -72 87 -142 157 -202 203 -30 23 -59 45 -65 50 -109 84 -360
208 -515 255 -126 39 -287 78 -360 88 -25 3 -70 12 -100 19 -30 7 -81 16 -113
20 -47 5 -58 4 -63 -10z"/>
<path d="M2176 8305 c-8 -9 -20 -33 -26 -53 -46 -169 -103 -429 -125 -562 -8
-47 -18 -107 -24 -135 -16 -81 -40 -243 -51 -345 -6 -52 -13 -107 -15 -121 -6
-26 -43 -402 -50 -499 -34 -485 -50 -1390 -31 -1760 4 -63 11 -200 16 -305 6
-104 12 -226 14 -270 5 -94 40 -463 55 -585 26 -201 32 -251 46 -355 9 -60 19
-126 24 -145 5 -19 12 -62 16 -95 3 -33 11 -74 16 -91 5 -17 16 -67 24 -110
27 -150 62 -298 79 -334 l12 -25 434 -5 c265 -3 440 -1 448 4 15 11 12 35 -11
106 -25 77 -40 137 -101 420 -19 88 -44 236 -57 335 -5 39 -13 90 -19 115 -5
25 -14 88 -19 140 -6 52 -17 156 -25 230 -35 318 -51 523 -62 790 -3 91 -8
168 -10 172 -7 10 -5 1378 1 1414 2 16 9 119 15 229 10 184 55 680 65 715 2 8
9 56 15 105 10 86 28 206 51 325 5 30 16 91 24 135 19 105 67 306 106 445 11
41 22 86 23 100 l1 25 -422 3 c-370 2 -423 0 -437 -13z"/>
<path d="M6680 5095 c-8 -9 -13 -78 -16 -192 -4 -203 -9 -310 -24 -540 -6 -90
-13 -200 -15 -245 -11 -214 -97 -878 -121 -937 -3 -9 -12 -50 -20 -91 -7 -41
-23 -113 -33 -160 -11 -47 -27 -112 -34 -146 -8 -33 -19 -76 -25 -95 -6 -19
-20 -68 -32 -109 -11 -41 -30 -106 -42 -145 -11 -38 -27 -90 -34 -115 -120
-405 -248 -636 -484 -870 -364 -362 -855 -523 -1350 -442 -328 53 -540 164
-795 414 l-140 138 -495 1 c-429 0 -495 -1 -498 -14 -2 -8 11 -37 27 -65 17
-27 31 -52 31 -56 0 -4 8 -19 18 -34 10 -15 45 -67 78 -117 83 -126 144 -204
253 -323 130 -142 329 -308 446 -372 11 -6 38 -22 60 -35 54 -33 161 -84 290
-139 41 -18 93 -36 135 -47 19 -5 58 -16 85 -24 92 -26 224 -55 255 -55 16 0
72 -7 122 -17 136 -24 537 -24 713 1 254 35 503 99 651 166 120 54 238 113
254 126 8 6 36 23 62 36 45 24 77 46 191 133 92 70 245 219 343 332 100 116
303 417 339 503 13 29 25 55 34 70 13 22 45 96 76 174 15 38 31 77 35 85 4 9
17 41 28 71 11 30 36 97 56 147 20 51 36 98 36 105 0 7 9 35 19 63 10 27 29
82 40 120 12 39 26 84 31 100 5 17 16 59 24 95 9 36 24 103 35 150 48 202 72
329 110 582 10 69 21 130 24 135 3 4 10 68 16 141 7 73 16 143 20 155 5 13 12
74 15 137 4 63 13 183 22 265 8 83 17 215 20 295 2 80 9 170 14 200 5 30 9 88
9 129 0 40 3 86 6 101 9 41 -19 64 -115 93 -162 48 -333 81 -585 113 -71 9
-135 17 -142 19 -6 2 -17 -2 -23 -10z"/>
</g>
</svg>
